<svg xmlns="http://www.w3.org/2000/svg" width="100" height="100" viewBox="0 0 100 100"><style>.a{fill:#FFF;}</style><path d="M88.7 87.8c6.2-0.6 11.1-5.8 11.1-12.1V24.2c0-6.7-5.4-12.2-12.2-12.2H12.2C5.5 11.9 0 17.4 0 24.1V75.7c0 6.7 5.5 12.2 12.2 12.2h75.4C88 87.9 88.3 87.9 88.7 87.8M94.2 75.7c0 3.7-3 6.6-6.6 6.6H12.2c-3.7 0-6.6-3-6.6-6.6V24.2c0-3.7 3-6.6 6.6-6.6h75.4c3.7 0 6.6 3 6.6 6.6V75.7H94.2z" class="a"/><path d="M62.9 49.3l24.4-21.9c1.1-1 1.2-2.8 0.2-3.9 -1-1.1-2.8-1.2-3.9-0.2l-33.6 30.2 -6.6-5.9c0 0 0 0 0-0.1 -0.1-0.1-0.3-0.3-0.5-0.4L16.2 23.2c-1.2-1-2.9-0.9-3.9 0.2 -1 1.2-0.9 2.9 0.2 3.9l24.7 22.1L12.6 72.5c-1.1 1.1-1.2 2.8-0.1 3.9 0.6 0.6 1.3 0.9 2 0.9 0.7 0 1.4-0.2 1.9-0.7l25-23.3 6.8 6c0.5 0.5 1.2 0.7 1.9 0.7 0.7 0 1.3-0.2 1.9-0.7l7-6.2 24.8 23.6c0.5 0.5 1.2 0.8 1.9 0.8 0.7 0 1.5-0.3 2-0.9 1.1-1.1 1-2.9-0.1-3.9L62.9 49.3z" class="a"/></svg>